<mxfile host="app.diagrams.net" modified="2023-06-12T17:06:00.135Z" agent="Mozilla/5.0 (X11; Linux x86_64) AppleWebKit/537.36 (KHTML, like Gecko) Chrome/113.0.0.0 Safari/537.36" version="21.3.8" etag="-R8N0sBhP3ooikF45NLU" type="github">
  <diagram name="Page-1" id="o7v8IdE1h85VuSMuiBwy">
    <mxGraphModel>
      <root>
        <mxCell id="0" />
        <mxCell id="1" parent="0" />
      </root>
    </mxGraphModel>
  </diagram>
</mxfile>
